<svg xmlns="http://www.w3.org/2000/svg" viewBox="538 -3 1037 1037">
<style>.st0{fill:#004712}.st1{fill:#387c2b}.st2,.st3{fill-rule:evenodd;clip-rule:evenodd;fill:#004712}.st3{fill:#387c2b}</style>
<path class="st2" d="M1061.232 129.126l117.179 193.393-37.911-12.229 130.436 215.263c-61.479-48.752-124.888-88.529-192.102-120.55l-8.462-132.569-9.14-143.308zm214.206 406.272c-63.301-41.526-127.586-74.474-194.648-99.781l6.865 107.778 24.52 400.866c58.849-3.098 105.03-40.016 127.451-71.775-84.818 54.426-117.897-79.924-112.547-163.184l230.288 58.268-143.411-251.991 61.482 19.819z"/>
<path class="st3" d="M1034.349 425.543c-35.636-11.62-72.163-21.191-109.794-28.822l-85.867 138.671 61.466-19.806L751.856 767.57l230.522-58.268c2.82 231.959-61.872 265.685-87.38 294.576 46.847 14.076 86.24 18.762 100.179 19.957l31.269-471.742 7.903-126.55zm-86.974-67.274l26.224-47.978-38.147 12.229 117.416-193.393-1.161 18.584-15.234 243.721c-28.891-12.362-58.547-23.398-89.098-33.163"/>
<path class="st0" d="M1546.579 369.914c-6.664-23.589-14.186-44.735-23.826-67.311-31.515-70.24-66.39-119.388-121.796-172.951-40.303-36.562-85.852-70.516-136.834-90.724 37.383 31.03 77.912 44.498 132.731 95.103 27.04 26.271 47.979 50.678 69.366 81.709 7.09 10.636 13.498 20.922 19.432 31.225-14.096-23.294-30.227-45.38-48.958-64.826 16.133 33.806 49.741 70.928 74.371 125.666 16.05 38.103 26.155 71.278 33.596 111.953 4.689 28.23 7.007 53.558 7.399 82.157-.191 23.768-1.404 45.651-3.891 66.731-5.926 42.408-17.295 83.449-38.334 122.096 24.385-65.156 33.803-118.602 33.699-188.53-1.155-45.469-6.457-82.16-18.176-126.089-6.399-22.64-13.595-42.851-22.833-64.541-30.184-67.336-63.58-114.426-116.676-165.782-22.347-20.259-46.485-39.781-72.336-56.364-30.042-19.85-61.912-35.853-100.169-50.787-67.418-24.089-122.113-33.03-193.652-31.732-33.968 1.321-63.108 5.056-96.303 12.375-34.126 7.967-62.743 17.699-94.912 31.864-66.774 31.31-113.758 65.337-164.058 119.291-10.436 11.827-52.239 62.713-55.577 77.72 20.227-27.174 36.054-48.682 59.449-74.107 49.215-51.223 94.11-84.218 158.521-114.414.886-.396 3.959-1.599 4.553-2.012 57.256-23.981 105.332-36.075 164.018-40.283-58.304 5.262-106.761 18.013-162.71 43.243-5.59 1.397-66.713 35.399-67.768 40.772 24.05-13.177 44.429-24.723 69.821-36.162 63.517-27.182 116.349-39.596 185.474-42.72a397.6 397.6 0 0 1 13.936-.232c64.18.971 113.35 9.773 173.539 31.783 66.736 26.664 113.279 56.148 165.324 105.481 17.637 17.849 32.953 34.982 46.535 52.57a457.46 457.46 0 0 1 10.725 15.528c-16.525-22.813-35.45-44.374-58.327-66.958-52.35-48.638-98.681-77.958-165.185-104.065-64.896-23.261-117.512-31.913-186.442-30.8-68.911 3.099-120.949 14.95-184.354 42.166-64.961 30.144-109.596 62.376-158.993 114.217-47.717 53.218-76.35 100.044-101.125 167.035-4.19 11.874-7.795 23.501-11.116 35.629-13.597 52.34-17.933 95.867-15.723 150.024 1.54 20.212 24.424 162.167 41.91 163.938-20.532-58.723-30.994-101.258-35.002-164.163-1.492-37.282.44-68.506 6.804-105.284 5.154-27.342 11.57-51.079 20.946-77.28 16.565-43.319 34.511-78.034 58.456-111.514 7.081-9.34 13.947-18.244 21.317-27.218-35.123 44.622-57.343 85.432-76.813 139.833-11.429 35.8-29.509 110.665-22.103 146.994 4.706-54.027 11.018-92.527 28.474-144.649 14.651-40.567 30.361-71.86 54.509-107.661 13.464-19.295 26.844-35.902 42.774-53.22 36.067-37.549 69.294-64.387 110.341-87.607 13.875-7.473 27.483-14.573 43.1-21.606 12.805-5.479 25.146-10.312 37.28-14.591 40.71-14.081 78.727-21.506 123.695-24.15-58.223 4.266-104.757 16-160.347 40.149-62.08 29.161-104.593 60.167-151.702 110.024-37.866 42.62-63.035 80.895-83.941 129.694-4.17 9.631-8.196 19.697-12.109 30.298a493.098 493.098 0 0 0-10.579 34.05c-12.953 49.989-17.042 91.51-14.903 143.238.206 2.598.787 7.321 1.663 13.528 2.88 32.417 8.138 60.535 17.159 90.765 5.778 23.889 12.189 44.049 18.165 50.168a482.081 482.081 0 0 0 7.913 17.295c38.535 74.805 129.206 159.492 107.209 133.734-42.806-44.631-71.3-81.606-99.318-137.215-9.567-20.053-16.838-38.57-23.462-59.768-11.073-37.76-16.585-69.59-18.816-108.848-2.084-63.459 4.949-112.11 25.44-171.96-8.991 28.587-22.314 82.9-22.21 119.786-.835 17.504-.644 34.11.499 52.044 6.079 66.158 50.813 179.605 41.142 145.921-5.009-14.109-9.39-27.422-13.232-40.447a577.189 577.189 0 0 0 5.884 17.584c5.129 13.94 10.626 26.809 17.087 40.18 35.907 69.385 123.781 152.119 102.431 126.887-40.661-42.514-67.785-77.488-94.553-130.381-9.111-19.055-16.085-36.652-22.383-56.805-10.572-35.918-15.85-66.195-18.007-103.543-2.044-60.704 4.728-107.206 24.459-164.605 3.749-9.934 7.584-19.347 11.556-28.372-3.813 9.1-7.451 18.587-10.985 28.591-12 36.5-18.245 67.195-21.324 105.475-1.332 20.185-1.284 38.588.042 58.795 5.931 63.105 48.794 171.166 39.615 138.574-17.131-48.568-26.836-87.164-31.072-138.86-1.631-26.329-1.091-49.167 1.935-75.409 4.092-30.603 10.042-56.004 19.943-85.212 21.317-58.189 45.753-98.838 87.065-144.945 42.871-45.024 81.342-73 137.822-98.825 55.066-23.23 100.091-33.213 159.759-35.071 59.449-.165 104.525 7.975 160.068 29.039 56.489 23.344 95.527 49.154 139.738 91.383 42.508 43 68.571 81.357 92.883 136.764 20.984 51.615 30.196 93.939 32.913 149.654.028 1.068-.027 4.508.151 5.298.688 57.355-6.423 101.548-25.11 155.945-19.055 50.551-40.085 87.09-73.95 128.691-51.824 55.084-118.971 95.572-194.566 114.537v25.965c-14.746 4.088-28.766 7.439-42.715 10.094l4.992 79.938c32.553-3.83 63.084-10.779 95.543-21.584 10.578-3.367 21.371-7.139 32.508-11.33 69.443-28.512 117.42-60.723 171.203-113.205 52.739-54.707 84.694-103.566 113.624-173.873 25.978-69.031 36.008-125.268 35.842-199.03-1.236-47.397-6.789-85.755-19.072-131.57M708.788 211.978c-43.206 48.665-69.063 91.43-91.297 152.548-19.187 57.839-26.052 104.712-23.827 164.943-1.374-26.112-.681-49.123 2.397-75.434 4.322-32.167 10.575-58.917 21.079-89.651 22.444-61.183 48.182-103.919 91.648-152.406l1.203-1.26-1.203 1.26z"/>
</svg>